<?xml version="1.0" encoding="UTF-8" standalone="no"?>
<svg xmlns="http://www.w3.org/2000/svg">
   <g transform="translate(214.69074,-96.383929)">
      <path style="fill:#00FFDA;fill-opacity:1;stroke:none;stroke-width:0.264583px;stroke-linecap:butt;stroke-linejoin:miter;stroke-opacity:1" d="m -214.69074,96.383929 v 42.333331 5.29167 h 5.29219 V 101.6756 h 5.29167 v 42.33333 h 15.875 V 101.6756 h 52.91614 v 5.29166 h -47.625 v 15.875 h 47.625 v 5.29167 h -47.625 v 15.875 h 58.20886 5.29167 V 101.6756 h 5.29167 v 42.33333 h 15.874997 V 101.6756 h 52.91666 v 5.29166 h -47.625 v 15.875 h 47.625 v 5.29167 h -47.625 v 15.875 h 58.20834 5.29166 V 101.6756 h 5.29167 v 42.33333 H -8.3152129 V 101.6756 H 44.601457 v 5.29166 H -3.0235429 v 15.875 H 44.601457 v 5.29167 H -3.0235429 v 15.875 h 58.2083299 5.29167 V 101.6756 h 5.29166 v 42.33333 h 15.875 V 101.6756 h 52.916673 v 5.29166 H 86.934787 v 15.875 h 47.625003 v 5.29167 H 86.934787 v 15.875 h 58.208333 5.29167 V 101.6756 h 5.29167 v 42.33333 h 15.875 V 101.6756 h 52.91666 v 5.29166 h -47.625 v 15.875 h 47.625 v 5.29167 h -47.625 v 15.875 h 58.20834 5.29166 V 101.6756 h 5.29167 v 42.33333 h 15.875 V 101.6756 h 52.91667 v 5.29166 h -47.625 v 15.875 h 47.625 v 5.29167 h -47.625 v 15.875 h 58.20833 5.29167 V 101.6756 h 5.29166 v 42.33333 h 15.875 V 101.6756 h 52.91667 v 5.29166 h -47.625 v 15.875 h 47.625 v 5.29167 h -47.625 v 15.875 h 52.91667 v -5.29167 h -47.625 v -5.29166 h 47.625 v -15.875 h -47.625 v -5.29167 h 47.625 V 96.383929 h -58.20834 -5.29166 v 42.333331 h -5.29167 V 96.383929 h -15.875 v 42.333331 h -52.91667 v -5.29166 h 47.625 v -15.875 h -47.625 v -5.29167 h 47.625 V 96.383929 h -58.20833 -5.29167 v 42.333331 h -5.29166 V 96.383929 h -15.875 v 42.333331 h -52.91667 v -5.29166 h 47.625 v -15.875 h -47.625 v -5.29167 h 47.625 V 96.383929 h -58.20833 -5.29167 v 42.333331 h -5.29167 V 96.383929 h -15.875 V 138.71726 H 92.226457 v -5.29166 h 47.625003 v -15.875 H 92.226457 v -5.29167 H 139.85146 V 96.383929 h -58.208343 -5.29166 v 42.333331 h -5.29167 V 96.383929 h -15.875 V 138.71726 H 2.2681171 V 133.4256 H 49.893117 v -15.875 H 2.2681171 v -5.29167 H 49.893117 V 96.383929 H -8.3152129 -13.606883 v 42.333331 h -5.29166 V 96.383929 h -15.875 v 42.333331 h -52.91667 v -5.29166 h 47.625 v -15.875 h -47.625 v -5.29167 h 47.625 V 96.383929 h -58.20833 -5.291667 v 42.333331 h -5.29167 V 96.383929 h -15.875 v 42.333331 h -52.91667 v -5.29166 h 47.625 v -15.875 h -47.625 v -5.29167 h 47.625 V 96.383929 h -58.20833 -5.29167 v 42.333331 h -5.29219 V 96.383929 Z" />
   </g>
</svg>